# xmcd
#
# Track frame offsets:
#	150
#	14560
#	33835
#	54535
#	70960
#	90310
#	110485
#	130510
#	150235
#	165760
#	184210
#	201685
#	218785
#	239785
#
# Disc length: 3417 seconds
#
# Revision: 1
# Processed by: cddbd v1.5.1PL0 Copyright (c) Steve Scherf et al.
# Submitted via: audiograbber 1.83.01
#
DISCID=ba0d570e
DTITLE=Kenny Rogers - Legends 021
DYEAR=1900
DGENRE=Country
TTITLE0=Ruby Don't Take Your Love To Town
TTITLE1=Lucille
TTITLE2=Coward Of The County
TTITLE3=Just Dropped In
TTITLE4=Lady
TTITLE5=Somethings Burning
TTITLE6=She Believes In Me
TTITLE7=Islands In The Stream
TTITLE8=Day Time Friends
TTITLE9=We've Got Tonight
TTITLE10=You Decorated My Life
TTITLE11=I Don't Need You
TTITLE12=Through The Years
TTITLE13=Love Will Turn You Around
EXTD=
EXTT0=
EXTT1=
EXTT2=
EXTT3=
EXTT4=
EXTT5=
EXTT6=
EXTT7=
EXTT8=
EXTT9=
EXTT10=
EXTT11=
EXTT12=
EXTT13=
PLAYORDER=
